arm26_states
nRows=10
nColumns=17

# SIMM Motion File Header:
name arm26_states
datacolumns 17
datarows 10
otherdata 1
range 0.17694719000000000000 0.18874366999999989000
endheader
time	r_shoulder_elev	r_elbow_flex	r_shoulder_elev_u	r_elbow_flex_u	TRIlong.activation	TRIlong.fiber_length	TRIlat.activation	TRIlat.fiber_length	TRImed.activation	TRImed.fiber_length	BIClong.activation	BIClong.fiber_length	BICshort.activation	BICshort.fiber_length	BRA.activation	BRA.fiber_length
      0.17694719000000000000	     -6.54850473976380960000	     27.74339539748893200000	    -59.35508855214288100000	    273.22086153135410000000	      0.01001768437089762600	      0.14313300772736329000	      0.01137366279035115200	      0.08132070153224778300	      0.01137366279035115200	      0.07634102764919621600	      0.11550178020203304000	      0.14225338524221692000	      0.02999367243433996900	      0.14062742634692293000	      0.01291747467838760000	      0.08673987537444047300
      0.17825790999999999000	     -6.62623075097336670000	     28.10168610270684300000	    -59.24301244519522000000	    273.47939600742131000000	      0.01001768290477475500	      0.14323012323225762000	      0.01139764913166320200	      0.08146673541839701000	      0.01139764913166320200	      0.07648671260156175700	      0.11537502302694973000	      0.14213523661476959000	      0.02994279484754094200	      0.14049483991145814000	      0.01288232287129395200	      0.08665904167609359000
      0.17956862999999998000	     -6.70380054443542320000	     28.46028448102087400000	    -59.11672239381779500000	    273.69033157499024000000	      0.01001768101592641200	      0.14332728183943308000	      0.01142298833176399300	      0.08161284165795243400	      0.01142298833176399300	      0.07663247352771455900	      0.11525546057328617000	      0.14201565875784383000	      0.02989267019853263100	      0.14036095402282883000	      0.01284638508342467700	      0.08657822783143905000
      0.18087934999999997000	     -6.78119552661355040000	     28.81912816243062300000	    -58.97631243277744800000	    273.85380788024116000000	      0.01001767871797997400	      0.14342461059229647000	      0.01144951419812567700	      0.08175899013820674100	      0.01144951419812567700	      0.07677828148624331300	      0.11514286090520183000	      0.14189466748403956000	      0.02984327421490069700	      0.14022578796129975000	      0.01280968665239900900	      0.08649746675467098700
      0.18219006999999995000	     -6.85839731039788080000	     29.17815525160537900000	    -58.82193844783209600000	    273.97021721030188000000	      0.01001767602412351500	      0.14352208804462332000	      0.01147708095421396000	      0.08190515318748176100	      0.01147708095421396000	      0.07692410875369369600	      0.11503699956375917000	      0.14177228016148730000	      0.02979458340669929500	      0.14008936225710572000	      0.01277225209902874100	      0.08641678238144022400
      0.18350078999999994000	     -6.93538766225366030000	     29.53730421477998300000	    -58.65371633107751100000	    274.03982958204460000000	      0.01001767294644404100	      0.14361969592748619000	      0.01150556288038321100	      0.08205130324514557600	      0.01150556288038321100	      0.07706992757457389900	      0.11493766365275515000	      0.14164851544139243000	      0.02974657545439608100	      0.13995169842361269000	      0.01273410508207709100	      0.08633618024194941700
      0.18481150999999993000	     -7.01214852260264630000	     29.89651393560797000000	    -58.47177440339756800000	    274.06294917287977000000	      0.01001766923674128400	      0.14371741605056676000	      0.01153576547351411000	      0.08219740502663604200	      0.01153576547351411000	      0.07721570313223026500	      0.11484631085284160000	      0.14152339194764660000	      0.02969938762490382400	      0.13981281847693294000	      0.01269524097742159200	      0.08625566740284938700
      0.18612222999999992000	     -7.08866197910775320000	     30.25572363329957100000	    -58.27624295280279700000	    274.03988466088293000000	      0.01001766476122139700	      0.14381523038567826000	      0.01156800119674194900	      0.08234341717188675700	      0.01156800119674194900	      0.07736139535037203600	      0.11476367070916429000	      0.14139692653093341000	      0.02965308771804418100	      0.13967274445140393000	      0.01265566657710672600	      0.08617526112249815400
      0.18743294999999990000	     -7.16491033661608510000	     30.61487306882020900000	    -58.06728794006256300000	    273.97104981041582000000	      0.01001765954457198500	      0.14391312109095034000	      0.01160202028931337300	      0.08248931006080645300	      0.01160202028931337300	      0.07750697470404011000	      0.11468946235230112000	      0.14126913767309235000	      0.02960764710990385400	      0.13953149937660328000	      0.01261540477889478200	      0.08609498205424895300
      0.18874366999999989000	     -7.24087609621005070000	     30.97390248156525800000	    -57.84506356246058100000	    273.85682219608668000000	      0.01001765361068479900	      0.14401107051255380000	      0.01163760367244369100	      0.08263505865900718000	      0.01163760367244369100	      0.07765241585496410200	      0.11462341396720215000	      0.14114004561840951000	      0.02956303809931706800	      0.13938910720096945000	      0.01257447774239413500	      0.08601484052634154900
